# xmcd CD database file
#
# Track frame offsets:
#	150
#	10032
#	20542
#	32097
#	45932
#	58596
#	73201
#	86917
#	100490
#	110051
#	121376
#	141888
#	153328
#	170109
#	190579
#	206231
#
# Disc length: 2884 seconds
#
# Revision: 0
# Processed by: cddbd v1.5.2PL0 Copyright (c) Steve Scherf et al.
# Submitted via: jetAudio 7
#
DISCID=e30b4210
DTITLE=Pan Pipes - Elvis Presley - Love Songs
DYEAR=2000
DGENRE=Instrumental
TTITLE0=Heartbreak Hotel
TTITLE1=Any Way You Want Me
TTITLE2=Love Me Tender
TTITLE3=One Night
TTITLE4=Don't
TTITLE5=It's Now Or Never
TTITLE6=Are You Lonesome Tonight
TTITLE7=Can't Help Falling In Love
TTITLE8=Anything That Is Part Of You
TTITLE9=Track 10It Hurts Me
TTITLE10=Suspicious Minds
TTITLE11=The Wonder Of You
TTITLE12=I've Lost You
TTITLE13=I Just Can't Help Believin?
TTITLE14=Always On My Mind
TTITLE15=Return To Sender
EXTD=YEAR: 2000
EXTT0=
EXTT1=
EXTT2=
EXTT3=
EXTT4=
EXTT5=
EXTT6=
EXTT7=
EXTT8=
EXTT9=
EXTT10=
EXTT11=
EXTT12=
EXTT13=
EXTT14=
EXTT15=
PLAYORDER=
